<svg height="100%" stroke-miterlimit="10" style="fill-rule:nonzero;clip-rule:evenodd;stroke-linecap:round;stroke-linejoin:round;" version="1.1" viewBox="0 0 180 180" width="100%" xml:space="preserve" xmlns="http://www.w3.org/2000/svg">
<g id="layer">
<path d="M90 0C40.2944 0 0 40.2944 0 90C0 139.706 40.2944 180 90 180C139.706 180 180 139.706 180 90C180 46.7669 149.49 10.7033 108.844 2.03125C103.994 20.0396 97.8695 42.7911 97.7188 43.3438C97.4797 44.1804 97.4098 44.2729 97 44.1875C96.778 44.1534 96.211 44.2213 95.75 44.375C95.1695 44.5628 94.8695 44.5883 94.75 44.4688C94.1694 43.8882 94.2864 43.3314 99.5625 23.9688C100.548 20.3593 103.762 8.62946 105.719 1.46875C100.602 0.564922 95.3766 0 90 0ZM93.0312 45.5938C94.0728 45.5937 95.3164 46.0867 96.375 46.9062C97.0921 47.4697 98.5 49.2664 98.5 49.625C98.5 50.1031 97.48 49.7178 95.875 48.625C95.0213 48.0445 93.6746 47.2961 92.9062 46.9375C92.1208 46.5789 91.5 46.2104 91.5 46.125C91.5 46.0226 91.6418 45.8666 91.8125 45.7812C91.9662 45.6788 92.519 45.6108 93.0312 45.5938ZM89.75 49.5938C90.8599 49.3035 92.4443 49.2864 93.4688 49.5938C95.1933 50.106 97.1543 51.9282 98.2812 54.0625C99.0838 55.5992 98.3866 55.4858 96.5938 53.8125C94.1009 51.5074 92.9961 50.9578 90.2812 50.7188C89.3422 50.6504 88.537 50.537 88.4688 50.4688C88.2468 50.2638 88.9133 49.8157 89.75 49.5938ZM88.25 53.9062C89.2403 53.7697 90.9897 53.8093 92.0312 54.0312C94.7462 54.6118 97.1762 56.5264 98.7812 59.3438C99.8569 61.2561 99.5634 61.2619 97.3438 59.2812C93.741 56.0371 92.499 55.4974 88.0938 55.3438C86.318 55.2755 85.2529 55.182 85.2188 55.0625C85.1163 54.7722 86.8499 54.1282 88.25 53.9062ZM80.625 57.875C80.7104 57.875 79.8315 58.8673 78.6875 60.0625C77.5606 61.2577 76.231 62.817 75.7188 63.5C71.3477 69.3054 70.5242 75.1747 73 82.6875C73.239 83.4217 73.48 84 73.5312 84C73.5825 84 73.537 83.8895 73.4688 83.7188C73.4175 83.5651 73.1482 82.6579 72.875 81.7188C71.2017 75.8622 71.51 71.5254 73.9688 66.625C74.9079 64.7639 76.3148 62.8814 78.3125 60.7812C79.798 59.2274 79.8979 59.1459 81.4688 58.5312C83.3128 57.8141 83.9001 57.7407 84.1562 58.2188C84.4124 58.7139 84.3502 59.2194 83.9062 60.5L83.5 61.6562L84.1875 60.875C84.5631 60.4481 84.9346 60.1363 84.9688 60.1875C85.02 60.2217 84.297 61.4945 83.375 63.0312C77.0574 73.6004 76.3615 80.0606 80.9375 86.1562C81.9107 87.4539 85.0477 90.6334 87.0625 92.375C87.7625 92.9897 86.8553 92.0258 85.0625 90.25C80.9475 86.1521 79.6095 84.2777 78.6875 81.375C78.2094 79.8383 78.0535 77.1192 78.3438 75.5312C78.9584 72.1676 81.761 65.6208 83.6562 63.0938C84.1343 62.4449 84.4932 62.1765 85.125 61.9375C86.1665 61.5789 86.4539 61.5789 86.8125 61.9375C87.2394 62.3473 87.03 63.337 86.125 65.625C84.8786 68.8009 84.5 70.6205 84.5 73.25C84.5 75.999 85.0287 78.1112 86.5312 81.2188C87.9655 84.1727 88.8557 85.2359 96.8125 93.5C102.191 99.0663 102.697 99.6469 103.875 101.781C105.002 103.83 105.29 105.006 105 106.406C104.573 108.472 103.126 110.534 101.094 111.969C99.9327 112.771 99.9011 112.772 99.5938 111.406C99.406 110.587 99.4149 110.65 99.3125 112.938C99.21 115.311 98.8534 117.249 98.1875 119.281C97.7094 120.681 97.2899 121.634 97.1875 121.531C97.1363 121.48 97.2809 120.63 97.4688 119.656C97.9468 117.215 98.1562 115.587 98.1562 114.562L98.1562 113.719L96.8438 115.469C95.2387 117.586 92.193 120.776 90.6562 121.938C89.0854 123.133 87.0222 124.105 85.6562 124.344C84.3244 124.566 82.8457 124.291 81.7188 123.625C81.0016 123.198 81.0023 123.22 81.3438 122.281C81.6511 121.376 81.5235 121.376 81.0625 122.281C80.4478 123.494 79.087 125.407 78.0625 126.5C77.5332 127.081 77.0825 127.534 77.0312 127.5C76.9971 127.449 77.4791 126.63 78.0938 125.656C81.1842 120.807 82.2332 117.295 82.0625 112.344C81.8747 107.409 80.7545 103.885 76.4688 94.9375C73.2416 88.176 72.5983 86.7181 71.625 83.7812C68.6199 74.8 69.9414 68.0335 75.9688 61.75C76.8566 60.828 78.2287 59.5664 79.0312 58.9688C79.8338 58.3711 80.5567 57.875 80.625 57.875ZM88 63.5625C88.0512 63.5967 87.8528 64.3905 87.5625 65.3125C85.7355 71.4252 85.8486 75.4385 88 79.8438C89.1952 82.3025 91.1286 84.7819 94.0312 87.7188C95.3118 89.0164 95.8222 89.5126 95.1562 88.8125C88.6508 81.829 86.5171 77.9433 86.5 72.9062C86.5 71.0963 86.9336 68.2964 87.5312 66.0938C87.8215 65.0522 87.8541 64.9803 88.4688 64.8438C89.3737 64.6218 90.2294 64.8144 90.6562 65.3438C90.9295 65.6852 90.9829 66.0438 91 67L91.0312 68.2188L91.25 67.1875C91.4719 66.163 91.9401 64.875 92.0938 64.875C92.1279 64.875 92.1421 66.1791 92.125 67.75C92.125 70.8917 92.4075 72.4878 93.3125 74.6562C94.5589 77.6443 96.2407 79.8058 101.688 85.4062C105.563 89.3676 107.215 91.3953 107.812 92.8125C107.949 93.1369 108.006 93.4062 107.938 93.4062C107.852 93.4062 106.891 92.4707 105.781 91.3438C104.654 90.1998 103.095 88.7284 102.344 88.0625C101.575 87.3796 102.227 88.1195 103.781 89.6562C106.838 92.6955 107.601 93.7748 108.25 95.875C108.54 96.8312 108.617 97.3132 108.531 98.5938C108.446 100.233 108.18 101.179 107.344 102.938C106.814 104.064 106.447 104.379 106.156 103.969C106.037 103.798 106.025 103.863 106.094 104.188C106.316 105.178 106.372 107.023 106.219 107.125C106.116 107.193 105.867 106.473 105.594 105.5C105.321 104.544 104.768 103.115 104.375 102.312C103.026 99.5806 101.803 98.0927 95.8438 92.0312C89.1846 85.2868 87.7439 83.4942 86.3438 80.25C84.7558 76.5619 84.5238 73.0238 85.5312 69.0625C85.9411 67.4575 86.9024 65.0612 87.5 64.1562C87.739 63.7977 87.9659 63.5284 88 63.5625ZM94.8438 66.1875C95.2834 66.2601 95.7606 66.4228 96.1875 66.6875C98.4243 68.0876 98.8972 68.6337 99.1875 70.1875C99.6144 72.3901 99.7771 72.836 100.562 74.0312C101.604 75.585 104.054 78.0921 105.438 79.0312C107.367 80.346 108.19 81.8225 108.344 84.2812C108.446 85.9546 108.217 86.9162 107.5 87.7188C107.022 88.231 106.839 88.3125 106.156 88.3125C105.439 88.3296 105.243 88.2484 104.406 87.5312C103.382 86.6605 97.6214 80.7042 96.375 79.2188C94.5139 77.0332 92.6965 73.0583 92.4062 70.5312C92.1843 68.4823 92.6943 66.8276 93.7188 66.2812C94.009 66.1361 94.4041 66.1149 94.8438 66.1875ZM99.8125 68.5938C99.9662 68.3376 100.181 68.674 100.625 69.9375C101.547 72.5158 102.492 73.6573 107.188 78.0625C108.605 79.3943 109.058 80.0938 108.562 80.0938C108.46 80.0937 107.995 79.864 107.5 79.625C104.683 78.1907 101.411 75.2477 100.438 73.25C99.635 71.6108 99.3344 69.3792 99.8125 68.5938ZM102.469 69.5625C104.031 69.8186 106.784 71.714 108.062 73.1875C107.58 72.6412 107.213 72.0689 106.406 71.3438C105.911 70.8998 105.5 70.4462 105.5 70.3438C105.5 70.0706 106.257 70.1385 107.281 70.5312C108.801 71.0947 110.231 72.5706 111.188 74.5C112.041 76.2416 112.381 77.5312 111.938 77.5312C111.613 77.5312 110.778 76.6053 109.531 74.8125C109.043 74.1236 108.489 73.6703 108.062 73.1875C108.489 73.6787 108.75 74.1174 108.75 74.4375C108.75 75.2742 108.461 75.8064 107.812 76.0625C107.488 76.1991 107.145 76.4401 107.094 76.5938C106.906 77.0718 106.212 76.8537 105.188 76C103.548 74.634 101.219 71.3199 101.219 70.3125C101.219 70.1588 101.378 69.9037 101.531 69.75C101.736 69.528 101.974 69.4942 102.469 69.5625ZM55.75 77.0625L57.875 82.8438L64 83.0625L59.1562 86.8438L60.8438 92.7188L55.75 89.3125L50.6875 92.7188L52.3438 86.8438L47.5312 83.0625L53.625 82.8438L55.75 77.0625ZM111.219 91.125L112 93.25L114.281 93.3438L112.5 94.75L113.125 96.9688L111.219 95.6562L109.344 96.9688L109.969 94.75L108.156 93.3438L110.406 93.25L111.219 91.125ZM129.375 95.5312L131.438 101.062L137.281 101.281L132.688 104.938L134.281 110.594L129.375 107.312L124.469 110.594L126.094 104.938L121.469 101.281L127.344 101.062L129.375 95.5312ZM73.9062 96.4062L74.8438 99.125L77.7188 99.2188L75.4688 101L76.25 103.75L73.9062 102.156L71.4688 103.75L72.2812 101L70.0312 99.2188L72.9062 99.125L73.9062 96.4062ZM58.5938 103.875L60.0938 107.969L64.4375 108.094L61 110.812L62.1875 115L58.5938 112.562L54.9688 115L56.1562 110.812L52.7188 108.094L57.0938 107.969L58.5938 103.875ZM109.875 106.406L110.969 109.344L114.094 109.469L111.625 111.406L112.469 114.375L109.875 112.656L107.312 114.375L108.156 111.406L105.688 109.469L108.781 109.344L109.875 106.406ZM76.8438 114L77.7188 116.469L80.3438 116.562L78.3125 118.188L79 120.719L76.8438 119.25L74.625 120.719L75.375 118.188L73.3125 116.562L75.9375 116.469L76.8438 114ZM116.625 118.125L118.125 122.219L122.469 122.375L119.031 125.094L120.25 129.281L116.625 126.812L113 129.281L114.219 125.094L110.75 122.375L115.125 122.219L116.625 118.125ZM94.6875 122.719L95.4375 124.656L97.5312 124.75L95.9062 126.031L96.4375 128.062L94.6875 126.906L93 128.062L93.5312 126.031L91.9062 124.75L94 124.656L94.6875 122.719ZM76.5 90.8438C76.4829 90.8949 77.2767 92.6385 78.25 94.6875C81.8528 102.252 83.1527 106.386 83.5625 111.406C83.7333 113.694 83.155 117.428 82.25 119.75C82.0622 120.245 81.9771 120.554 82.0625 120.469C82.3186 120.178 82.9539 118.497 83.3125 117.062C84.3199 113.05 84.0254 108.369 82.4375 103.281C82.1131 102.223 80.9604 99.6707 79.2188 96.1875C77.7162 93.1994 76.5 90.7925 76.5 90.8438ZM85.9375 93.7188L87.5625 95.2188C94.9217 102.014 97.4736 106.092 97.9688 112C98.1053 113.537 98.0909 113.576 98.125 112.5C98.142 111.151 97.7906 108.897 97.3125 107.531C96.2197 104.372 94.5538 101.915 91.3438 98.6875C89.9778 97.3215 88.2088 95.6517 87.4062 94.9688L85.9375 93.7188Z" fill-rule="nonzero" opacity="1" stroke="none"/>
</g>
</svg>
